<svg xmlns="http://www.w3.org/2000/svg" viewBox="-46 -64 106 106" width="106" height="106"><g class="h-head"><polygon points="-24,-11 -82,12 -28,-4" fill="#a487ec"></polygon><polygon points="-27,-4 -64,22 -29,2" fill="#8c6cf0"></polygon><g transform="rotate(0 22 2)"><polygon points="22,-8 54.6,1.5 22,2" fill="#8c6cf0"></polygon><polygon points="22,-8 54.6,1.5 34.9,-3.2" fill="#a78bfa"></polygon></g><g transform="rotate(0 22 2)"><polygon points="22,2 51.2,3.5 22,9" fill="#7453e0"></polygon></g><polygon points="-36,2 -26,-19 -4,-26 16,-21 27,-9 27,9 13,20 -8,23 -27,14" fill="#ddccff"></polygon><polygon points="-26,-19 -4,-26 16,-21 27,-9 6,-8 -20,-5" fill="#f1ebff"></polygon><polygon points="-36,2 -26,-19 -20,-5" fill="#c4a9fb"></polygon><polygon points="-27,14 -8,23 13,20 27,9 8,9 -16,7" fill="#c4a9fb"></polygon><polygon points="-36,2 -20,-5 -16,7 -27,14" fill="#a487ec"></polygon><circle cx="0" cy="0" r="15.5" fill="#0c0e12"></circle><circle cx="0" cy="0" r="6.5" fill="#c9adff"></circle><circle cx="-6.2" cy="-6.2" r="4" fill="#ffffff"></circle><circle cx="5.9" cy="5.5" r="1.6" fill="#ffffff"></circle><polygon points="-20.2,-20.2 20.2,-20.2 20.2,1.2 -20.2,1.2" fill="#ddccff"></polygon><line x1="-15.2" y1="1.2" x2="15.2" y2="1.2" stroke="#0c0e12" style="stroke-width: 3.1; stroke-linecap: round"></line></g></svg>