<svg xmlns="http://www.w3.org/2000/svg" viewBox="28 -10 392 450" width="392" height="450"><ellipse cx="195" cy="418" rx="74" ry="6" fill="#000000" opacity="0.22"></ellipse><polyline points="192,298 188.1,359.9 206,414" fill="none" stroke="#9a7ce6" style="stroke-width: 5; stroke-linecap: round; stroke-linejoin: round"></polyline><circle cx="188.1" cy="359.9" r="3.8" fill="#9a7ce6"></circle><polyline points="194,415 206,414 227,416" fill="none" stroke="#9a7ce6" style="stroke-width: 4; stroke-linecap: round; stroke-linejoin: round"></polyline><polyline points="206,414 219,419" fill="none" stroke="#9a7ce6" style="stroke-width: 3.5; stroke-linecap: round; stroke-linejoin: round"></polyline><polyline points="170,300 160.3,358.2 172,414" fill="none" stroke="#b596f7" style="stroke-width: 5.5; stroke-linecap: round; stroke-linejoin: round"></polyline><circle cx="160.3" cy="358.2" r="4.1" fill="#b596f7"></circle><polyline points="160,415 172,414 193,416" fill="none" stroke="#b596f7" style="stroke-width: 4; stroke-linecap: round; stroke-linejoin: round"></polyline><polyline points="172,414 185,419" fill="none" stroke="#b596f7" style="stroke-width: 3.5; stroke-linecap: round; stroke-linejoin: round"></polyline><polygon points="128,290 74,334 112,312" fill="#8c6cf0"></polygon><polygon points="134,300 84,348 124,318" fill="#a487ec"></polygon><polygon points="96,316 122,268 168,242 214,236 238,258 226,292 188,308 132,316" fill="#ddccff"></polygon><polygon points="96,316 122,268 168,242 214,236 238,258 178,262 134,290" fill="#f1ebff"></polygon><polygon points="132,316 188,308 226,292 238,258 190,282 150,304" fill="#c4a9fb"></polygon><polygon points="126,300 170,258 222,262 182,292" fill="#c4a9fb"></polygon><polygon points="126,300 182,292 208,296 160,312" fill="#a487ec"></polygon><polyline points="170,258 222,262" fill="none" stroke="#8c6cf0" style="stroke-width: 2; stroke-linecap: round; stroke-linejoin: round"></polyline><circle cx="224.5" cy="255.4" r="11.5" fill="#c4a9fb"></circle><circle cx="227.7" cy="252.3" r="11.4" fill="#c4a9fb"></circle><circle cx="230.4" cy="249.2" r="11.3" fill="#c4a9fb"></circle><circle cx="232.6" cy="246.1" r="11.2" fill="#c4a9fb"></circle><circle cx="234.5" cy="242.9" r="11.1" fill="#c4a9fb"></circle><circle cx="236" cy="239.8" r="11" fill="#c4a9fb"></circle><circle cx="237.2" cy="236.7" r="10.9" fill="#c4a9fb"></circle><circle cx="238" cy="233.5" r="10.8" fill="#c4a9fb"></circle><circle cx="238.5" cy="230.3" r="10.7" fill="#c4a9fb"></circle><circle cx="238.8" cy="227.1" r="10.6" fill="#c4a9fb"></circle><circle cx="238.8" cy="223.9" r="10.5" fill="#c4a9fb"></circle><circle cx="238.6" cy="220.7" r="10.4" fill="#c4a9fb"></circle><circle cx="238.1" cy="217.4" r="10.3" fill="#c4a9fb"></circle><circle cx="237.5" cy="214.1" r="10.2" fill="#c4a9fb"></circle><circle cx="236.7" cy="210.8" r="10.1" fill="#c4a9fb"></circle><circle cx="235.8" cy="207.5" r="10" fill="#c4a9fb"></circle><circle cx="234.8" cy="204.1" r="9.9" fill="#c4a9fb"></circle><circle cx="233.6" cy="200.7" r="9.8" fill="#c4a9fb"></circle><circle cx="232.4" cy="197.3" r="9.7" fill="#c4a9fb"></circle><circle cx="231.2" cy="193.9" r="9.6" fill="#c4a9fb"></circle><circle cx="230" cy="190.4" r="9.4" fill="#c4a9fb"></circle><circle cx="228.7" cy="186.9" r="9.3" fill="#c4a9fb"></circle><circle cx="227.5" cy="183.4" r="9.2" fill="#c4a9fb"></circle><circle cx="226.3" cy="179.8" r="9.1" fill="#c4a9fb"></circle><circle cx="225.2" cy="176.2" r="9" fill="#c4a9fb"></circle><circle cx="224.2" cy="172.5" r="8.9" fill="#c4a9fb"></circle><circle cx="223.4" cy="168.8" r="8.8" fill="#c4a9fb"></circle><circle cx="222.6" cy="165.1" r="8.7" fill="#c4a9fb"></circle><circle cx="222.1" cy="161.3" r="8.6" fill="#c4a9fb"></circle><circle cx="221.7" cy="157.5" r="8.5" fill="#c4a9fb"></circle><circle cx="221.5" cy="153.7" r="8.4" fill="#c4a9fb"></circle><circle cx="221.6" cy="149.8" r="8.3" fill="#c4a9fb"></circle><circle cx="221.9" cy="145.9" r="8.2" fill="#c4a9fb"></circle><circle cx="222.6" cy="141.9" r="8.1" fill="#c4a9fb"></circle><circle cx="223.5" cy="137.8" r="8" fill="#c4a9fb"></circle><circle cx="224.8" cy="133.8" r="7.9" fill="#c4a9fb"></circle><circle cx="226.4" cy="129.6" r="7.8" fill="#c4a9fb"></circle><circle cx="228.4" cy="125.4" r="7.7" fill="#c4a9fb"></circle><circle cx="230.8" cy="121.2" r="7.6" fill="#c4a9fb"></circle><circle cx="233.7" cy="116.9" r="7.5" fill="#c4a9fb"></circle><circle cx="221.1" cy="253.4" r="9.9" fill="#ddccff"></circle><circle cx="224.2" cy="250.3" r="9.8" fill="#ddccff"></circle><circle cx="227" cy="247.3" r="9.7" fill="#ddccff"></circle><circle cx="229.3" cy="244.2" r="9.6" fill="#ddccff"></circle><circle cx="231.2" cy="241.1" r="9.5" fill="#ddccff"></circle><circle cx="232.7" cy="237.9" r="9.4" fill="#ddccff"></circle><circle cx="233.9" cy="234.8" r="9.4" fill="#ddccff"></circle><circle cx="234.8" cy="231.7" r="9.3" fill="#ddccff"></circle><circle cx="235.3" cy="228.5" r="9.2" fill="#ddccff"></circle><circle cx="235.6" cy="225.3" r="9.1" fill="#ddccff"></circle><circle cx="235.6" cy="222.1" r="9" fill="#ddccff"></circle><circle cx="235.4" cy="218.9" r="8.9" fill="#ddccff"></circle><circle cx="235" cy="215.6" r="8.8" fill="#ddccff"></circle><circle cx="234.4" cy="212.4" r="8.7" fill="#ddccff"></circle><circle cx="233.7" cy="209.1" r="8.7" fill="#ddccff"></circle><circle cx="232.8" cy="205.8" r="8.6" fill="#ddccff"></circle><circle cx="231.8" cy="202.4" r="8.5" fill="#ddccff"></circle><circle cx="230.7" cy="199.1" r="8.4" fill="#ddccff"></circle><circle cx="229.6" cy="195.7" r="8.3" fill="#ddccff"></circle><circle cx="228.3" cy="192.2" r="8.2" fill="#ddccff"></circle><circle cx="227.1" cy="188.8" r="8.1" fill="#ddccff"></circle><circle cx="225.9" cy="185.3" r="8" fill="#ddccff"></circle><circle cx="224.7" cy="181.8" r="7.9" fill="#ddccff"></circle><circle cx="223.6" cy="178.2" r="7.9" fill="#ddccff"></circle><circle cx="222.5" cy="174.6" r="7.8" fill="#ddccff"></circle><circle cx="221.5" cy="171" r="7.7" fill="#ddccff"></circle><circle cx="220.7" cy="167.3" r="7.6" fill="#ddccff"></circle><circle cx="220" cy="163.6" r="7.5" fill="#ddccff"></circle><circle cx="219.5" cy="159.9" r="7.4" fill="#ddccff"></circle><circle cx="219.1" cy="156.1" r="7.3" fill="#ddccff"></circle><circle cx="219" cy="152.3" r="7.2" fill="#ddccff"></circle><circle cx="219.1" cy="148.4" r="7.2" fill="#ddccff"></circle><circle cx="219.5" cy="144.5" r="7.1" fill="#ddccff"></circle><circle cx="220.1" cy="140.5" r="7" fill="#ddccff"></circle><circle cx="221.1" cy="136.5" r="6.9" fill="#ddccff"></circle><circle cx="222.4" cy="132.4" r="6.8" fill="#ddccff"></circle><circle cx="224.1" cy="128.3" r="6.7" fill="#ddccff"></circle><circle cx="226.1" cy="124.1" r="6.6" fill="#ddccff"></circle><circle cx="228.5" cy="119.9" r="6.5" fill="#ddccff"></circle><circle cx="231.4" cy="115.6" r="6.5" fill="#ddccff"></circle><g transform="translate(234.3 236.7) rotate(-69.8)"><line x1="0" y1="-9.8" x2="0" y2="9.8" stroke="#c4a9fb" style="stroke-width: 1.8; stroke-linecap: round"></line></g><g transform="translate(236.2 218.9) rotate(-96.1)"><line x1="0" y1="-9.3" x2="0" y2="9.3" stroke="#c4a9fb" style="stroke-width: 1.8; stroke-linecap: round"></line></g><g transform="translate(231.8 200.5) rotate(-108.3)"><line x1="0" y1="-8.8" x2="0" y2="8.8" stroke="#c4a9fb" style="stroke-width: 1.8; stroke-linecap: round"></line></g><g transform="translate(225.1 181.2) rotate(-108.1)"><line x1="0" y1="-8.3" x2="0" y2="8.3" stroke="#c4a9fb" style="stroke-width: 1.8; stroke-linecap: round"></line></g><g transform="translate(220.2 160.9) rotate(-97.2)"><line x1="0" y1="-7.8" x2="0" y2="7.8" stroke="#c4a9fb" style="stroke-width: 1.8; stroke-linecap: round"></line></g><g transform="translate(221.2 139.2) rotate(-76.9)"><line x1="0" y1="-7.3" x2="0" y2="7.3" stroke="#c4a9fb" style="stroke-width: 1.8; stroke-linecap: round"></line></g><g transform="translate(235.8 99) rotate(-4)"><g transform="scale(1.24)"><polygon points="-24,-11 -82,12 -28,-4" fill="#a487ec"></polygon><polygon points="-27,-4 -64,22 -29,2" fill="#8c6cf0"></polygon><g transform="rotate(0 22 2)"><polygon points="22,-8 118,1.5 22,2" fill="#8c6cf0"></polygon><polygon points="22,-8 118,1.5 60,-3.2" fill="#a78bfa"></polygon></g><g transform="rotate(0 22 2)"><polygon points="22,2 108,3.5 22,9" fill="#7453e0"></polygon></g><polygon points="-36,2 -26,-19 -4,-26 16,-21 27,-9 27,9 13,20 -8,23 -27,14" fill="#ddccff"></polygon><polygon points="-26,-19 -4,-26 16,-21 27,-9 6,-8 -20,-5" fill="#f1ebff"></polygon><polygon points="-36,2 -26,-19 -20,-5" fill="#c4a9fb"></polygon><polygon points="-27,14 -8,23 13,20 27,9 8,9 -16,7" fill="#c4a9fb"></polygon><polygon points="-36,2 -20,-5 -16,7 -27,14" fill="#a487ec"></polygon><circle cx="0" cy="0" r="15.5" fill="#0c0e12"></circle><circle cx="0" cy="0" r="6.5" fill="#c9adff"></circle><circle cx="-6.2" cy="-6.2" r="4" fill="#ffffff"></circle><circle cx="5.9" cy="5.5" r="1.6" fill="#ffffff"></circle></g></g></svg>
